<svg id="Calque_1" data-name="Calque 1" xmlns="http://www.w3.org/2000/svg" viewBox="0 0 713.78 188.04"><defs><style>.cls-1{fill:#2d2926;}.cls-2{fill:#841bf3;}</style></defs><path class="cls-1" d="M88.05,102.54c0-16.91-12.69-28.57-27-28.59-15.37,0-26.59,11.6-26.62,28.5C34.45,119.58,45.63,131,61,131c14.27,0,27-11.37,27.05-28.5m35,55.17L88,157.65v-8.78c-8.57,7.67-20,12-34.27,12C24.5,160.84-.06,137.31,0,102.4.06,67.7,24.69,44,53.89,44.08c14.27,0,25.69,4.43,34.24,12.13V47.43l35.13,0Z"/><path class="cls-1" d="M222.31,47l-1.6,35.13h-6.37c-24.59,0-38,12.67-38.05,41.22l-.06,34.47-35.13-.06.18-110.23,35.13.06,0,21.08c7.92-13.16,20-22.58,38-22.55a29.64,29.64,0,0,1,7.91.89"/><polygon class="cls-1" points="229.7 0 229.7 158.1 264.83 158.1 264.83 118.35 271.2 118.35 306.99 158.1 352 158.1 298.64 100.35 346.95 47.87 304.57 47.87 269.66 85.42 264.83 85.42 264.83 0 229.7 0"/><path class="cls-1" d="M429.74,103c0-17.12-13-28.54-26.57-28.54-14.28,0-27.23,11.42-27.23,28.54,0,17.35,12.95,28.55,27.23,28.55,13.61,0,26.57-11.2,26.57-28.55m33.81,0c0,34.91-27.67,58.19-60.38,58.19-33.38,0-61.05-23.28-61.05-58.19,0-34.69,27.67-58,61.05-58,32.71,0,60.38,23.28,60.38,58"/><path class="cls-1" d="M501.1,122.3c1.54,9.45,10.1,13,19.54,13,9.22,0,14.27-3.95,14.27-8.78,0-3.74-2.85-6.59-11-8.13L501.54,114c-20.42-3.73-32.06-14.71-32.06-32.06,0-22.61,19.54-37.33,47.43-37.33,27.45,0,45.67,12.52,50.06,31.62l-32.06,6.37c-1.09-6.81-7.68-13-18.44-13C507,69.61,504,74.22,504,78.17c0,3.07,1.32,6.15,8.35,7.69l25.91,5.26c20.86,4.4,30.52,16.91,30.52,33.16,0,24.37-21.08,37.11-50.07,37.11-25.9,0-48.08-9.44-51.82-32.06Z"/><path class="cls-1" d="M607.16,90.47h45.45c-3.29-11.86-12.08-17.35-22.18-17.35a24.14,24.14,0,0,0-23.27,17.35M687.3,112H606.5c2.86,13.18,11.86,21.3,23.71,21.3,8.13,0,17.57-2,23.5-12.73l31.18,6.37c-9.44,23.27-29.42,34.47-54.68,34.47-31.83,0-58.18-23.5-58.18-58.41,0-34.69,26.35-58.41,58.4-58.41,31.18,0,56.22,22.4,56.87,58.41Z"/><path class="cls-2" d="M616.08,187l-13.52-3.07,4.15-18.3,4.5,1L608,181l9,2Z"/><path class="cls-2" d="M620.35,187.32l1.36-14,4.46.43-1.36,14Zm6.58-17.64a2.48,2.48,0,0,1-2.83,2.23,2.45,2.45,0,0,1-2.32-2.73,2.59,2.59,0,0,1,5.15.5Z"/><path class="cls-2" d="M638.85,187.86l-4.56.18L627.9,174.2l4.73-.19,3.74,8.54,3-8.81,4.73-.2Z"/><path class="cls-2" d="M660.28,178l-10,2.41a3.25,3.25,0,0,0,6.11-.34l4-.15c-.47,3.17-2.61,5.16-5.74,5.91a7.45,7.45,0,0,1-3.47-14.49c3.87-.93,7.64,1.1,8.8,5.55Zm-10.58-.27,5.63-1.36a2.8,2.8,0,0,0-3.26-1.49A3.08,3.08,0,0,0,649.7,177.76Z"/><path class="cls-2" d="M682,167l-8.89,5.21a3.24,3.24,0,0,0,5.74-2.1l3.84-1.31c.47,3.17-1,5.69-3.79,7.32a7.45,7.45,0,0,1-7.51-12.87c3.43-2,7.63-1.16,10,2.76Zm-10.21,2.8,5-2.93a2.82,2.82,0,0,0-3.56-.48A3.09,3.09,0,0,0,671.74,169.76Z"/><path class="cls-2" d="M688.76,168.47l-14-14.46,3.21-3.12L692,165.35Z"/><path class="cls-2" d="M698.64,146.3,693,154.93a3.1,3.1,0,0,0,3.93-1.05,3.13,3.13,0,0,0,.27-3.4l2.85-2.89c1.83,2.63,1.64,5.55-.12,8.25a7.45,7.45,0,0,1-12.47-8.15c2.17-3.34,6.31-4.45,10.2-2Zm-7.87,7.07,3.16-4.86a2.82,2.82,0,0,0-3.4,1.16A3.1,3.1,0,0,0,690.77,153.37Z"/><path class="cls-2" d="M708.5,136.86l-1.54,4.3-15.22.75,1.59-4.45,9.32-.28-7-6.08,1.59-4.46Z"/><path class="cls-2" d="M713.33,113.09l-.63,4.44-1.11-.16a6.34,6.34,0,0,1,.9,4.54c-.53,3.69-3.94,6.37-8.35,5.73s-6.93-4.16-6.4-7.85a6.35,6.35,0,0,1,2.15-4.1l-1.11-.16.64-4.44Zm-7.59,3.44a3.5,3.5,0,0,0-4.09,2.89,3.65,3.65,0,0,0,7.2,1A3.48,3.48,0,0,0,705.74,116.53Z"/><path class="cls-2" d="M712.71,97.63a7.58,7.58,0,0,1,1.07,3.83c0,3.5-1.85,5.61-5.54,5.65l-5.32,0,0,2.55-3.55,0,0-2.54-4.14,0,0-4.48,4.14,0,0-4.15,3.56,0,0,4.14,4.88,0c1.45,0,2-.72,2-1.9a4.53,4.53,0,0,0-.58-2Z"/><path class="cls-2" d="M705.46,81.87l1.38,10.21a3.25,3.25,0,0,0,.27-6.11l.28-4c3.1.79,4.85,3.13,5.29,6.32a7.45,7.45,0,0,1-14.77,2c-.53-3.94,1.87-7.49,6.41-8.19Zm-1.35,10.49-.78-5.74a2.8,2.8,0,0,0-1.81,3.1A3.06,3.06,0,0,0,704.11,92.36Z"/><path class="cls-2" d="M706.48,63l1.21,4.32-1.08.3a6.33,6.33,0,0,1,2.66,3.79c1,3.59-1,7.42-5.32,8.62s-8-1-9-4.6a6.27,6.27,0,0,1,.3-4.62l-7,1.94-1.21-4.31Zm-5.56,6.21a3.51,3.51,0,0,0-2.58,4.3,3.65,3.65,0,0,0,7-2A3.48,3.48,0,0,0,700.92,69.16Z"/></svg>