<svg id="Calque_1" data-name="Calque 1" xmlns="http://www.w3.org/2000/svg" viewBox="0 0 1080 1080"><defs><style>.cls-1{fill:#2d2926;}.cls-2{fill:#841bf3;}</style></defs><path class="cls-1" d="M199.65,257c-6.49-5.79-7-15.22-.9-22.08s15.56-7.4,22-1.61,7,15.22.9,22.08S206.23,262.9,199.65,257Z"/><path class="cls-1" d="M243.11,149.7l34.77-20.16,48.35,38.67.11-.06-10-60.92,33.36-19.35L391.3,159.6l-20.93,12.14L337.06,114.3l-.22.12L347.48,185,328,196.33,271.88,152.1l-.22.13L305,209.67,284.7,221.42Z"/><path class="cls-1" d="M390.64,129.42c-4.12-16.25,3.74-34.49,34.4-42.25s46.25,4.52,50.36,20.77-3.55,34.17-34.45,42S394.79,145.78,390.64,129.42Zm63-16C451.5,104.9,444.14,99,429,102.8s-18.79,12.56-16.62,21.11c2.11,8.3,9.34,14.27,24.6,10.4S455.8,121.87,453.66,113.45Z"/><path class="cls-1" d="M487.43,75l22.42-.45L510,92.74h.25c3.67-11.91,13.1-19.66,32.62-20,24.06-.47,32.22,10.71,32.52,25.83l.73,37-22.42.45-.61-31c-.17-8.44-5-15-20.08-14.73-12.22.24-22.7,5.74-22.45,18.21l.56,28.35-22.43.44Z"/><path class="cls-1" d="M594,114.91,598,93.34l-11.28-2,2.89-15.87L599,77.13c3.22.59,4.51-.84,5.68-4.47l2.67-8.35,18.1,3.3-2.52,13.88,31.48,5.74-2.89,15.86L620,97.36l-3.84,21.07c-1.31,7.19,2.33,10.42,15,12.72a93.37,93.37,0,0,0,14.36,1.34l-2.78,15.24c-3.4.41-10.87-.06-18.06-1.37C597.64,141.44,591.4,129.29,594,114.91Z"/><path class="cls-1" d="M672.43,91.54l20.9,8.13-6.88,16.65.35.14c7-8.35,18.26-13.58,33.53-7.64,19.26,7.49,21.25,20.43,15.59,35-1.92,4.94-4.14,9.61-5.25,11.75L711.3,148c.62-1.25,1.65-3.55,2.52-5.78,3.79-9.75,2.91-16.18-7.19-20.1-13.39-5.21-23.12,2.77-27,12.87l-8.81,22.66-20.9-8.13Z"/><path class="cls-1" d="M811.42,204l-49.87-33.09c-3.37,7.13-2.38,14.75,10.11,23,11.45,7.6,16.8,7.06,19.9,4l16.59,11c-7.15,9.63-21.3,12-44.29-3.22-28.14-18.67-27.69-37.58-19-50.7,11.22-16.91,31.06-19,53.74-4,22.89,15.19,26.88,31.74,15.66,48.65Zm-9.9-21.09c3.14-4.72,2.42-11.39-9.65-19.41-10.92-7.24-17.87-7-23.49-2l32.86,21.8Z"/><path class="cls-1" d="M820,210.94l25.95-24.82,15.5,16.21-22.31,21.34c-7.19,6.88-7.71,14,1.95,24.1,8.89,9.29,21.93,12,31.31,3l18.48-17.68,15.5,16.21-45,43-15.5-16.21c2.82-2.52,8.27-7.57,13-12.1l-.17-.18C847,269.29,835.81,267.44,822,253,806.38,236.66,809.49,221,820,210.94Z"/><path class="cls-1" d="M916.15,265.28l12.78,18.43-51.15,35.47L865,300.75Zm19.78-13.71L948.71,270l-13.25,9.19-12.78-18.43Z"/><path class="cls-1" d="M959.78,283.94,971,303.36l-76.37,44.12-11.21-19.42Z"/><path class="cls-1" d="M953.27,381.91c8.23-2.8,16.7,1.38,19.65,10.09s-1.22,17.18-9.45,20-16.7-1.38-19.66-10.09S944.92,384.74,953.27,381.91Z"/><path class="cls-1" d="M1025.13,472.62l.42,40.19-57.48,23V536L1026,557.29l.4,38.55-82.9.86-.25-24.19,66.4-.69v-.25L943,546.05l-.23-22.56,66.13-27v-.25l-66.4.68-.24-23.44Z"/><path class="cls-1" d="M970.18,610.94c16.17,4.38,28.21,20.18,19.93,50.7s-26.64,38.08-42.82,33.7-28-19.88-19.69-50.64S953.88,606.52,970.18,610.94Zm-17,62.75c8.52,2.31,17.3-1.19,21.38-16.27s-1.72-22.53-10.23-24.84c-8.27-2.24-17,1.13-21.14,16.34S944.77,671.41,953.16,673.69Z"/><path class="cls-1" d="M970,722.06l-10.67,19.73-15.84-8.85-.12.22c8.56,9.07,10.66,21.09,1.37,38.27-11.44,21.17-25.19,22.76-38.49,15.57l-32.59-17.61,10.67-19.73L911.6,764.4c7.43,4,15.52,3.09,22.71-10.22,5.81-10.75,6.19-22.57-4.78-28.51l-24.94-13.48,10.66-19.73Z"/><path class="cls-1" d="M882.73,795.15l16.81,14.07,7.36-8.79,12.37,10.35-6.14,7.34c-2.11,2.51-1.5,4.34,1.08,7.15l5.94,6.45-11.81,14.11-10.82-9.06L877,861.32,864.61,851l20.54-24.55-16.42-13.75c-5.61-4.68-10.21-3.11-18.46,6.74A92.62,92.62,0,0,0,842,831.24l-11.89-10c1.33-3.16,5.43-9.42,10.12-15C857.88,785.2,871.52,785.77,882.73,795.15Z"/><path class="cls-1" d="M864.41,874.82,847.05,889l-11.12-14.18-.29.23c3.81,10.24,2.84,22.59-9.83,33-16,13.08-28.25,8.46-38.14-3.64-3.35-4.09-6.33-8.33-7.65-10.34l16.09-13.17c.78,1.16,2.27,3.19,3.79,5,6.62,8.09,12.65,10.49,21,3.62,11.12-9.09,8.95-21.49,2.09-29.87l-15.4-18.82L825,826.64Z"/><path class="cls-1" d="M698.19,940.6l53.33-27.17c-4.56-6.45-11.68-9.32-25-2.52-12.24,6.24-14.4,11.16-13.24,15.37l-17.74,9c-4.87-11,0-24.45,24.57-37,30.09-15.33,46.34-5.65,53.49,8.38,9.21,18.08,1.29,36.4-23,48.75-24.48,12.47-40.85,7.81-50.06-10.27Zm23.23,1.74c2.57,5,8.74,7.71,21.65,1.13,11.67-6,14.89-12.12,13.26-19.48l-35.14,17.9Z"/><path class="cls-1" d="M687.91,944.65l8.77,34.82L674.93,985,667.39,955c-2.43-9.65-8.37-13.61-21.93-10.2C633,948,624.21,958,627.38,970.54l6.24,24.81-21.75,5.48-15.2-60.37L618.42,935c.81,3.69,2.5,10.93,4.1,17.29l.24-.07c1-12.86,8.19-21.68,27.62-26.57C672.25,920.13,684.37,930.6,687.91,944.65Z"/><path class="cls-1" d="M593.18,1001.45l-22.34,2-5.6-62,22.34-2Zm2.16,24-22.33,2-1.46-16.06,22.34-2Z"/><path class="cls-1" d="M555.48,1030.19l-22.43.19-.77-88.19,22.42-.2Z"/><path class="cls-1" d="M473.49,976.32c-1.61,8.55-9.41,13.87-18.45,12.17s-14.36-9.5-12.75-18,9.4-13.88,18.44-12.17S475.12,967.65,473.49,976.32Z"/><path class="cls-1" d="M359,994.37l-35.17-19.45,8.29-61.35-.11-.06L284.93,953.4l-33.74-18.66,40.12-72.55,21.17,11.71L280.35,932l.22.12,55.07-45.42,19.73,10.91-9.08,70.85.22.13,32.13-58.11,20.51,11.34Z"/><path class="cls-1" d="M265.59,878.37c-11.85,11.85-31.53,14.44-53.9-7.91s-19.8-42-8-53.9,31.18-14.44,53.73,8.09S277.52,866.43,265.59,878.37Zm-46-46c-6.23,6.24-7.57,15.59,3.48,26.63s20.41,9.71,26.64,3.47c6.06-6.06,7.48-15.33-3.66-26.46S225.74,826.27,219.6,832.42Z"/><path class="cls-1" d="M169.21,823.48l-11.94-19,15.49-9.45-.14-.22c-12.1,3-23.6-1.07-34-17.6-12.82-20.37-7.45-33.12,5.34-41.18l31.35-19.73,11.95,19L161,751.81c-7.15,4.5-10.31,12-2.26,24.8,6.51,10.34,16.63,16.48,27.18,9.83l24-15.1,11.95,19Z"/><path class="cls-1" d="M148.43,711.55l-20.52,7.72,4,10.73-15.09,5.67-3.37-9c-1.15-3.07-3-3.43-6.76-2.57l-8.53,2-6.48-17.21,13.21-5L93.66,674l15.09-5.67L120,698.27l20-7.53c6.84-2.58,7.74-7.35,3.22-19.38a92.38,92.38,0,0,0-6.24-13l14.51-5.46c2.1,2.72,5.54,9.36,8.11,16.2C169.32,694.81,162.11,706.41,148.43,711.55Z"/><path class="cls-1" d="M88.1,656.27l-3.77-22.11,17.82-2.65-.06-.38c-10.78-1.74-21-8.68-23.79-24.82-3.48-20.37,6.6-28.74,22-31.36,5.21-.89,10.37-1.39,12.77-1.54l3.5,20.49c-1.39.11-3.89.41-6.25.81C100,596.47,95,600.53,96.77,611.21c2.42,14.16,14.26,18.4,24.94,16.57l24-4.08,3.77,22.1Z"/><path class="cls-1" d="M112.84,479.27l-2.59,59.8c7.86-.8,13.87-5.58,14.52-20.56.59-13.72-2.63-18-6.87-19.09l.86-19.89c11.93,1.15,21.3,12,20.1,39.59-1.46,33.73-17.88,43.11-33.61,42.43-20.27-.88-32.32-16.78-31.14-44,1.18-27.44,13.31-39.4,33.57-38.52ZM99.9,498.64c-5.67-.25-11,3.81-11.64,18.29-.57,13.09,3.22,18.93,10.44,21.13l1.7-39.4Z"/><path class="cls-1" d="M114.35,468.34l-34.64-9.45,5.9-21.64,29.78,8.13c9.61,2.62,16-.61,19.65-14.1,3.39-12.4-1-25-13.54-28.38l-24.67-6.73,5.9-21.64,60,16.38-5.9,21.64c-3.61-1.12-10.75-3.19-17.07-4.92l-.07.24c10.7,7.23,14.87,17.78,9.6,37.1C143.39,466.73,128.33,472.15,114.35,468.34Z"/><path class="cls-1" d="M89.48,348l9.23-20.44,14.7,6.64-9.23,20.44Zm21.93,9.91,9.24-20.44,56.72,25.63-9.24,20.44Z"/><path class="cls-1" d="M105,310.86l10.89-19.61L193,334.06l-10.89,19.61Z"/><path class="cls-2" d="M520.47,338c16.45,0,31.53,4,44.82,11.85,16.58,9.81,29.73,24.36,39.1,43.26l36.34,72.59-103,36.11-90.1-130.69a101.47,101.47,0,0,1,7.74-8.59c13.6-13.39,31.34-21.4,52.72-23.82a111.44,111.44,0,0,1,12.37-.71m0-7a118.53,118.53,0,0,0-13.16.75c-23,2.6-42.1,11.28-56.85,25.79A111.62,111.62,0,0,0,439,370.86l96,139.29,115.54-40.52-39.9-79.69c-10-20.12-24-35.64-41.79-46.16C554.44,335.25,538.2,331,520.47,331Z"/><path class="cls-2" d="M431.28,399l77.8,112.85L389,554l37.44-140.74A127.07,127.07,0,0,1,431.28,399m-1.14-14a129.35,129.35,0,0,0-10.5,26.4L378.78,564.93,520,515.4,430.14,385Z"/><path class="cls-2" d="M653.25,490.66l90.4,180.54-11.72,2.19c-13.8,2.59-38.12,7.14-67.21,12.57L554.06,525.45l99.19-34.79m3.5-8.64L543.1,521.87,661.54,693.68l83.57-15.63,8.95-1.68L656.75,482Z"/><path class="cls-2" d="M525.4,535.5,633.18,691.85c-126.56,23.62-201.39,37.41-205.84,37.93a69.31,69.31,0,0,1-7.83.45A63.14,63.14,0,0,1,383.41,719a53.91,53.91,0,0,1-22.73-38.56,81,81,0,0,1,3.13-31.94l0-.08,0-.08,16.47-61.92L525.4,535.5m2.73-8.38L374.51,581l-17.42,65.5a87.9,87.9,0,0,0-3.36,34.69,60.9,60.9,0,0,0,25.68,43.52,70.18,70.18,0,0,0,40.1,12.52,78.81,78.81,0,0,0,8.62-.49c5.91-.67,126.19-23,216.93-40L528.13,527.12Z"/></svg>