<?xml version="1.0" encoding="utf-8"?>
<!-- Generator: Adobe Illustrator 26.0.1, SVG Export Plug-In . SVG Version: 6.00 Build 0)  -->
<svg version="1.1" id="Calque_1" xmlns="http://www.w3.org/2000/svg" xmlns:xlink="http://www.w3.org/1999/xlink" x="0px" y="0px"
	 viewBox="0 0 16 16" style="enable-background:new 0 0 16 16;" xml:space="preserve">
<path d="M3.5,0C3.8,0,4,0.2,4,0.5V1h8V0.5C12,0.2,12.2,0,12.5,0S13,0.2,13,0.5V1h1c1.1,0,2,0.9,2,2v11c0,1.1-0.9,2-2,2H2
	c-1.1,0-2-0.9-2-2V3c0-1.1,0.9-2,2-2h1V0.5C3,0.2,3.2,0,3.5,0z M1,4v10c0,0.6,0.4,1,1,1h12c0.6,0,1-0.4,1-1V4H1z"/>
<g>
	<g>
		<path d="M4.9,7.5H6v2.7c0,0.3-0.1,0.5-0.2,0.7s-0.3,0.4-0.5,0.5s-0.5,0.2-0.8,0.2c-0.3,0-0.5,0-0.7-0.1S3.4,11.2,3.2,11
			S3,10.6,3,10.2h1.1c0,0.1,0,0.2,0.1,0.3s0.1,0.1,0.1,0.2s0.1,0.1,0.2,0.1c0.1,0,0.1,0,0.2-0.1s0.1-0.1,0.1-0.2s0-0.2,0-0.3V7.5z"
			/>
		<path d="M7.3,11.5c-0.2,0-0.4,0-0.5-0.1s-0.3-0.2-0.3-0.3s-0.1-0.3-0.1-0.5c0-0.2,0-0.3,0.1-0.4S6.6,10,6.7,10S6.9,9.8,7,9.8
			s0.3-0.1,0.4-0.1c0.2,0,0.3,0,0.4,0s0.2,0,0.2-0.1s0.1-0.1,0.1-0.1v0c0-0.1,0-0.1-0.1-0.2S7.9,9.2,7.8,9.2c-0.1,0-0.2,0-0.3,0.1
			S7.5,9.4,7.5,9.5h-1c0-0.2,0.1-0.4,0.2-0.5s0.3-0.3,0.5-0.4s0.4-0.1,0.7-0.1c0.2,0,0.4,0,0.6,0.1s0.3,0.1,0.4,0.2s0.2,0.2,0.3,0.3
			s0.1,0.2,0.1,0.4v2.1h-1v-0.4h0c-0.1,0.1-0.1,0.2-0.2,0.3s-0.2,0.1-0.3,0.2S7.5,11.5,7.3,11.5z M7.7,10.9c0.1,0,0.2,0,0.2-0.1
			s0.1-0.1,0.2-0.1s0.1-0.1,0.1-0.2v-0.2c0,0-0.1,0-0.1,0s-0.1,0-0.1,0s-0.1,0-0.1,0s-0.1,0-0.1,0c-0.1,0-0.2,0-0.2,0.1
			s-0.1,0.1-0.1,0.1s0,0.1,0,0.1c0,0.1,0,0.1,0.1,0.2S7.6,10.9,7.7,10.9z"/>
		<path d="M10.8,9.8v1.7H9.7v-3h1v0.6h0c0.1-0.2,0.2-0.3,0.3-0.4s0.4-0.2,0.6-0.2c0.2,0,0.4,0,0.6,0.1s0.3,0.2,0.4,0.4
			c0.1,0.2,0.1,0.4,0.1,0.6v1.9h-1.1V9.8c0-0.1,0-0.3-0.1-0.3c-0.1-0.1-0.2-0.1-0.3-0.1c-0.1,0-0.2,0-0.2,0.1s-0.1,0.1-0.2,0.2
			S10.8,9.7,10.8,9.8z"/>
	</g>
</g>
</svg>
