<?xml version="1.0" encoding="utf-8"?>
<!-- Generator: Adobe Illustrator 26.0.1, SVG Export Plug-In . SVG Version: 6.00 Build 0)  -->
<svg version="1.1" id="Calque_1" xmlns="http://www.w3.org/2000/svg" xmlns:xlink="http://www.w3.org/1999/xlink" x="0px" y="0px"
	 viewBox="0 0 16 16" style="enable-background:new 0 0 16 16;" xml:space="preserve">
<path d="M3.5,0C3.8,0,4,0.2,4,0.5V1h8V0.5C12,0.2,12.2,0,12.5,0S13,0.2,13,0.5V1h1c1.1,0,2,0.9,2,2v11c0,1.1-0.9,2-2,2H2
	c-1.1,0-2-0.9-2-2V3c0-1.1,0.9-2,2-2h1V0.5C3,0.2,3.2,0,3.5,0z M1,4v10c0,0.6,0.4,1,1,1h12c0.6,0,1-0.4,1-1V4H1z"/>
<g>
	<g>
		<path d="M7.2,9.5c0,0.4-0.1,0.8-0.2,1S6.6,11,6.3,11.2c-0.3,0.1-0.6,0.2-0.9,0.2c-0.3,0-0.6-0.1-0.9-0.2C4.2,11,4,10.8,3.9,10.5
			c-0.2-0.3-0.2-0.6-0.2-1c0-0.4,0.1-0.8,0.2-1C4,8.2,4.2,8,4.5,7.8c0.3-0.1,0.6-0.2,0.9-0.2c0.3,0,0.6,0.1,0.9,0.2
			C6.6,8,6.8,8.2,7,8.5C7.1,8.7,7.2,9.1,7.2,9.5z M6.2,9.5c0-0.2,0-0.4-0.1-0.6C6,8.8,6,8.7,5.8,8.6C5.7,8.5,5.6,8.5,5.4,8.5
			S5.1,8.5,5,8.6C4.9,8.7,4.8,8.8,4.7,8.9C4.7,9.1,4.7,9.3,4.7,9.5c0,0.2,0,0.4,0.1,0.6c0.1,0.2,0.1,0.3,0.3,0.3
			c0.1,0.1,0.3,0.1,0.4,0.1s0.3,0,0.4-0.1C6,10.3,6,10.2,6.1,10.1C6.2,9.9,6.2,9.7,6.2,9.5z"/>
		<path d="M9,11.4c-0.3,0-0.6-0.1-0.8-0.2c-0.2-0.1-0.4-0.3-0.5-0.5S7.6,10.3,7.6,10s0.1-0.5,0.2-0.8C7.9,9,8.1,8.8,8.3,8.7
			C8.5,8.6,8.7,8.5,9,8.5c0.3,0,0.5,0,0.7,0.1s0.4,0.2,0.5,0.4c0.1,0.2,0.2,0.4,0.2,0.6H9.5c0-0.1-0.1-0.3-0.1-0.3S9.2,9.3,9.1,9.3
			c-0.1,0-0.2,0-0.2,0.1C8.8,9.4,8.7,9.5,8.7,9.6S8.6,9.8,8.6,10c0,0.2,0,0.3,0.1,0.4s0.1,0.2,0.2,0.2c0.1,0,0.1,0.1,0.2,0.1
			c0.1,0,0.1,0,0.2-0.1s0.1-0.1,0.1-0.2c0-0.1,0.1-0.1,0.1-0.2h0.9c0,0.2-0.1,0.5-0.2,0.6s-0.3,0.3-0.5,0.4
			C9.6,11.4,9.3,11.4,9,11.4z"/>
		<path d="M12.5,8.6v0.7h-1.8V8.6H12.5z M11,7.9h1v2.6c0,0,0,0.1,0,0.1c0,0,0,0,0.1,0.1c0,0,0.1,0,0.1,0c0,0,0.1,0,0.1,0
			c0,0,0.1,0,0.1,0l0.1,0.7c0,0-0.1,0-0.2,0c-0.1,0-0.2,0-0.3,0c-0.2,0-0.4,0-0.6-0.1c-0.2-0.1-0.3-0.2-0.4-0.3
			C11,10.9,11,10.7,11,10.6V7.9z"/>
	</g>
</g>
</svg>
