<?xml version="1.0" encoding="utf-8"?>
<!-- Generator: Adobe Illustrator 26.0.1, SVG Export Plug-In . SVG Version: 6.00 Build 0)  -->
<svg version="1.1" id="Calque_1" xmlns="http://www.w3.org/2000/svg" xmlns:xlink="http://www.w3.org/1999/xlink" x="0px" y="0px"
	 viewBox="0 0 16 16" style="enable-background:new 0 0 16 16;" xml:space="preserve">
<path d="M3.5,0C3.8,0,4,0.2,4,0.5V1h8V0.5C12,0.2,12.2,0,12.5,0S13,0.2,13,0.5V1h1c1.1,0,2,0.9,2,2v11c0,1.1-0.9,2-2,2H2
	c-1.1,0-2-0.9-2-2V3c0-1.1,0.9-2,2-2h1V0.5C3,0.2,3.2,0,3.5,0z M1,4v10c0,0.6,0.4,1,1,1h12c0.6,0,1-0.4,1-1V4H1z"/>
<g>
	<g>
		<path d="M6.5,7.6v3.7H5.6L4.3,9.4h0v1.9h-1V7.6h0.9l1.3,1.9h0V7.6H6.5z"/>
		<path d="M8.3,11.4c-0.3,0-0.6-0.1-0.8-0.2c-0.2-0.1-0.4-0.3-0.5-0.5S6.9,10.3,6.9,10S6.9,9.4,7,9.2C7.1,9,7.3,8.8,7.5,8.7
			C7.7,8.6,8,8.5,8.3,8.5s0.6,0.1,0.8,0.2C9.3,8.8,9.5,9,9.6,9.2C9.7,9.4,9.7,9.7,9.7,10s-0.1,0.5-0.2,0.8s-0.3,0.4-0.5,0.5
			C8.9,11.3,8.6,11.4,8.3,11.4z M8.3,10.7c0.1,0,0.2,0,0.2-0.1s0.1-0.1,0.1-0.2c0-0.1,0.1-0.2,0.1-0.4c0-0.1,0-0.3-0.1-0.4
			c0-0.1-0.1-0.2-0.1-0.2S8.4,9.3,8.3,9.3c-0.1,0-0.2,0-0.2,0.1S8,9.5,7.9,9.6c0,0.1-0.1,0.2-0.1,0.4c0,0.1,0,0.3,0.1,0.4
			c0,0.1,0.1,0.2,0.1,0.2S8.2,10.7,8.3,10.7z"/>
		<path d="M13,8.6L12,11.4h-1.2L9.9,8.6h1l0.4,1.8h0l0.4-1.8H13z"/>
	</g>
</g>
</svg>
