<?xml version="1.0" encoding="utf-8"?>
<!-- Generator: Adobe Illustrator 26.0.1, SVG Export Plug-In . SVG Version: 6.00 Build 0)  -->
<svg version="1.1" id="Calque_1" xmlns="http://www.w3.org/2000/svg" xmlns:xlink="http://www.w3.org/1999/xlink" x="0px" y="0px"
	 viewBox="0 0 16 16" style="enable-background:new 0 0 16 16;" xml:space="preserve">
<path d="M3.5,0C3.8,0,4,0.2,4,0.5V1h8V0.5C12,0.2,12.2,0,12.5,0S13,0.2,13,0.5V1h1c1.1,0,2,0.9,2,2v11c0,1.1-0.9,2-2,2H2
	c-1.1,0-2-0.9-2-2V3c0-1.1,0.9-2,2-2h1V0.5C3,0.2,3.2,0,3.5,0z M1,4v10c0,0.6,0.4,1,1,1h12c0.6,0,1-0.4,1-1V4H1z"/>
<g>
	<g>
		<path d="M4.7,11.4H3.3V7.6h1.4c0.4,0,0.7,0.1,1,0.2s0.5,0.4,0.6,0.6c0.2,0.3,0.2,0.6,0.2,1s-0.1,0.7-0.2,1S6,11,5.7,11.1
			C5.4,11.3,5.1,11.4,4.7,11.4z M4.3,10.5h0.4c0.2,0,0.3,0,0.5-0.1c0.1-0.1,0.2-0.2,0.3-0.3C5.5,10,5.5,9.8,5.5,9.5
			c0-0.3,0-0.5-0.1-0.6S5.3,8.6,5.1,8.6S4.8,8.5,4.6,8.5H4.3V10.5z"/>
		<path d="M8.4,11.4c-0.3,0-0.6-0.1-0.8-0.2S7.2,11,7.1,10.7C7,10.5,6.9,10.3,6.9,10c0-0.3,0.1-0.5,0.2-0.8C7.2,9,7.4,8.8,7.6,8.7
			C7.8,8.6,8,8.5,8.3,8.5c0.2,0,0.4,0,0.6,0.1c0.2,0.1,0.3,0.2,0.4,0.3s0.2,0.3,0.3,0.5C9.7,9.5,9.7,9.7,9.7,10v0.2H7.2V9.6h1.6
			c0-0.1,0-0.1-0.1-0.2c0-0.1-0.1-0.1-0.2-0.1c-0.1,0-0.1-0.1-0.2-0.1c-0.1,0-0.2,0-0.2,0.1C8.1,9.3,8,9.4,8,9.4
			c0,0.1-0.1,0.1-0.1,0.2v0.6c0,0.1,0,0.2,0.1,0.2c0,0.1,0.1,0.1,0.2,0.2c0.1,0,0.2,0.1,0.3,0.1c0.1,0,0.1,0,0.2,0
			c0.1,0,0.1,0,0.1-0.1c0,0,0.1-0.1,0.1-0.1h0.9c0,0.2-0.1,0.4-0.2,0.5S9.2,11.2,9,11.3C8.8,11.4,8.6,11.4,8.4,11.4z"/>
		<path d="M11.5,11.4c-0.3,0-0.6-0.1-0.8-0.2s-0.4-0.3-0.5-0.5C10.1,10.5,10,10.3,10,10s0.1-0.5,0.2-0.8c0.1-0.2,0.3-0.4,0.5-0.5
			s0.5-0.2,0.8-0.2c0.3,0,0.5,0,0.7,0.1s0.4,0.2,0.5,0.4c0.1,0.2,0.2,0.4,0.2,0.6h-0.9c0-0.1-0.1-0.3-0.1-0.3s-0.2-0.1-0.3-0.1
			c-0.1,0-0.2,0-0.2,0.1c-0.1,0.1-0.1,0.1-0.2,0.2S11,9.8,11,10c0,0.2,0,0.3,0.1,0.4s0.1,0.2,0.2,0.2s0.1,0.1,0.2,0.1
			c0.1,0,0.1,0,0.2-0.1s0.1-0.1,0.1-0.2c0-0.1,0.1-0.1,0.1-0.2h0.9c0,0.2-0.1,0.5-0.2,0.6s-0.3,0.3-0.5,0.4
			C12,11.4,11.7,11.4,11.5,11.4z"/>
	</g>
</g>
</svg>
