<?xml version="1.0" encoding="utf-8"?>
<!-- Generator: Adobe Illustrator 26.0.1, SVG Export Plug-In . SVG Version: 6.00 Build 0)  -->
<svg version="1.1" id="Calque_1" xmlns="http://www.w3.org/2000/svg" xmlns:xlink="http://www.w3.org/1999/xlink" x="0px" y="0px"
	 viewBox="0 0 16 16" style="enable-background:new 0 0 16 16;" xml:space="preserve">
<path d="M3.5,0C3.8,0,4,0.2,4,0.5V1h8V0.5C12,0.2,12.2,0,12.5,0S13,0.2,13,0.5V1h1c1.1,0,2,0.9,2,2v11c0,1.1-0.9,2-2,2H2
	c-1.1,0-2-0.9-2-2V3c0-1.1,0.9-2,2-2h1V0.5C3,0.2,3.2,0,3.5,0z M1,4v10c0,0.6,0.4,1,1,1h12c0.6,0,1-0.4,1-1V4H1z"/>
<g>
	<g>
		<path d="M3.3,11.5v-4h2.8v0.9H4.4v0.7H6v0.9H4.4v1.6H3.3z"/>
		<path d="M8,11.6c-0.3,0-0.6-0.1-0.8-0.2s-0.4-0.3-0.5-0.5S6.4,10.3,6.4,10c0-0.3,0.1-0.6,0.2-0.8C6.7,9,6.9,8.8,7.2,8.7
			S7.6,8.5,8,8.5c0.2,0,0.4,0,0.6,0.1S8.9,8.7,9,8.9C9.2,9,9.3,9.2,9.3,9.4C9.4,9.5,9.4,9.8,9.4,10v0.2H6.8V9.7h1.7
			c0-0.1,0-0.2-0.1-0.2S8.3,9.3,8.2,9.3S8.1,9.2,8,9.2c-0.1,0-0.2,0-0.2,0.1S7.6,9.4,7.6,9.4S7.5,9.6,7.5,9.7v0.6
			c0,0.1,0,0.2,0.1,0.3s0.1,0.1,0.2,0.2s0.2,0.1,0.3,0.1c0.1,0,0.1,0,0.2,0s0.1-0.1,0.2-0.1s0.1-0.1,0.1-0.1h1
			c0,0.2-0.1,0.4-0.2,0.5s-0.3,0.3-0.5,0.4S8.3,11.6,8,11.6z"/>
		<path d="M12.9,8.5l-1,3h-1.2l-1-3h1.1l0.5,2h0l0.5-2H12.9z"/>
	</g>
</g>
</svg>
