<?xml version="1.0" encoding="utf-8"?>
<!-- Generator: Adobe Illustrator 26.0.1, SVG Export Plug-In . SVG Version: 6.00 Build 0)  -->
<svg version="1.1" id="Calque_1" xmlns="http://www.w3.org/2000/svg" xmlns:xlink="http://www.w3.org/1999/xlink" x="0px" y="0px"
	 viewBox="0 0 16 16" style="enable-background:new 0 0 16 16;" xml:space="preserve">
<path d="M3.5,0C3.8,0,4,0.2,4,0.5V1h8V0.5C12,0.2,12.2,0,12.5,0S13,0.2,13,0.5V1h1c1.1,0,2,0.9,2,2v11c0,1.1-0.9,2-2,2H2
	c-1.1,0-2-0.9-2-2V3c0-1.1,0.9-2,2-2h1V0.5C3,0.2,3.2,0,3.5,0z M1,4v10c0,0.6,0.4,1,1,1h12c0.6,0,1-0.4,1-1V4H1z"/>
<g>
	<g>
		<path d="M3.1,7.6h1.3l0.9,2.2h0l0.9-2.2h1.3v3.9h-1V9.2h0l-0.9,2.2H5L4.1,9.2h0v2.2h-1V7.6z"/>
		<path d="M8.8,11.5c-0.2,0-0.3,0-0.5-0.1c-0.1-0.1-0.3-0.2-0.3-0.3c-0.1-0.1-0.1-0.3-0.1-0.5c0-0.2,0-0.3,0.1-0.4
			C8,10.1,8.1,10,8.2,9.9s0.2-0.1,0.3-0.2c0.1,0,0.3-0.1,0.4-0.1c0.2,0,0.3,0,0.4,0c0.1,0,0.2,0,0.2-0.1s0.1-0.1,0.1-0.1v0
			c0-0.1,0-0.1-0.1-0.2S9.4,9.2,9.3,9.2c-0.1,0-0.2,0-0.2,0.1C9,9.3,9,9.4,9,9.5H8C8,9.3,8.1,9.1,8.2,9c0.1-0.1,0.2-0.3,0.4-0.4
			C8.8,8.5,9,8.5,9.3,8.5c0.2,0,0.4,0,0.6,0.1s0.3,0.1,0.4,0.2s0.2,0.2,0.3,0.3c0.1,0.1,0.1,0.2,0.1,0.4v2h-1V11h0
			c-0.1,0.1-0.1,0.2-0.2,0.3s-0.2,0.1-0.3,0.1S8.9,11.5,8.8,11.5z M9.2,10.8c0.1,0,0.2,0,0.2,0c0.1,0,0.1-0.1,0.2-0.1
			s0.1-0.1,0.1-0.2v-0.2c0,0-0.1,0-0.1,0c0,0-0.1,0-0.1,0c0,0-0.1,0-0.1,0c0,0-0.1,0-0.1,0c-0.1,0-0.1,0-0.2,0.1
			c-0.1,0-0.1,0.1-0.1,0.1c0,0,0,0.1,0,0.1c0,0.1,0,0.1,0.1,0.2C9,10.8,9.1,10.8,9.2,10.8z"/>
		<path d="M11.2,11.4V8.5h1v0.5h0c0.1-0.2,0.1-0.4,0.3-0.4c0.1-0.1,0.2-0.1,0.4-0.1c0,0,0.1,0,0.1,0c0,0,0.1,0,0.1,0v0.9
			c-0.1,0-0.1,0-0.2,0c-0.1,0-0.1,0-0.2,0c-0.1,0-0.2,0-0.3,0.1c-0.1,0-0.1,0.1-0.2,0.2c0,0.1-0.1,0.2-0.1,0.3v1.5H11.2z"/>
	</g>
</g>
</svg>
