<?xml version="1.0" encoding="utf-8"?>
<!-- Generator: Adobe Illustrator 26.0.1, SVG Export Plug-In . SVG Version: 6.00 Build 0)  -->
<svg version="1.1" id="Calque_1" xmlns="http://www.w3.org/2000/svg" xmlns:xlink="http://www.w3.org/1999/xlink" x="0px" y="0px"
	 viewBox="0 0 16 16" style="enable-background:new 0 0 16 16;" xml:space="preserve">
<path d="M3.5,0C3.8,0,4,0.2,4,0.5V1h8V0.5C12,0.2,12.2,0,12.5,0S13,0.2,13,0.5V1h1c1.1,0,2,0.9,2,2v11c0,1.1-0.9,2-2,2H2
	c-1.1,0-2-0.9-2-2V3c0-1.1,0.9-2,2-2h1V0.5C3,0.2,3.2,0,3.5,0z M1,4v10c0,0.6,0.4,1,1,1h12c0.6,0,1-0.4,1-1V4H1z"/>
<g>
	<g>
		<path d="M4.4,11.4H3.3l1.3-3.9H6l1.3,3.9H6.1L5.3,8.6h0L4.4,11.4z M4.2,9.9h2.1v0.8H4.2V9.9z"/>
		<path d="M10.5,8.5l-1,2.9H8.4l-1-2.9h1.1l0.5,1.9h0l0.5-1.9H10.5z"/>
		<path d="M10.8,11.4V8.5h1v0.5h0c0.1-0.2,0.1-0.4,0.3-0.4c0.1-0.1,0.2-0.1,0.4-0.1c0,0,0.1,0,0.1,0c0,0,0.1,0,0.1,0v0.9
			c-0.1,0-0.1,0-0.2,0c-0.1,0-0.1,0-0.2,0c-0.1,0-0.2,0-0.3,0.1c-0.1,0-0.1,0.1-0.2,0.2c0,0.1-0.1,0.2-0.1,0.3v1.5H10.8z"/>
	</g>
</g>
</svg>
