<?xml version="1.0" encoding="utf-8"?>
<!-- Generator: Adobe Illustrator 26.0.1, SVG Export Plug-In . SVG Version: 6.00 Build 0)  -->
<svg version="1.1" id="Calque_1" xmlns="http://www.w3.org/2000/svg" xmlns:xlink="http://www.w3.org/1999/xlink" x="0px" y="0px"
	 viewBox="0 0 16 16" style="enable-background:new 0 0 16 16;" xml:space="preserve">
<path d="M3.5,0C3.8,0,4,0.2,4,0.5V1h8V0.5C12,0.2,12.2,0,12.5,0S13,0.2,13,0.5V1h1c1.1,0,2,0.9,2,2v11c0,1.1-0.9,2-2,2H2
	c-1.1,0-2-0.9-2-2V3c0-1.1,0.9-2,2-2h1V0.5C3,0.2,3.2,0,3.5,0z M1,4v10c0,0.6,0.4,1,1,1h12c0.6,0,1-0.4,1-1V4H1z"/>
<g>
	<g>
		<path d="M5.6,8.3H4.5l1.2-3.7h1.4l1.2,3.7H7.2L6.4,5.6h0L5.6,8.3z M5.4,6.8h2v0.8h-2V6.8z"/>
		<path d="M10,8.3c-0.3,0-0.6-0.1-0.8-0.2S8.9,7.9,8.8,7.7C8.6,7.4,8.6,7.2,8.6,6.9c0-0.3,0.1-0.5,0.2-0.8C8.9,5.9,9,5.8,9.3,5.7
			S9.7,5.5,10,5.5s0.6,0.1,0.8,0.2s0.4,0.3,0.5,0.5c0.1,0.2,0.2,0.5,0.2,0.8c0,0.3-0.1,0.5-0.2,0.8C11.2,7.9,11,8,10.8,8.2
			S10.3,8.3,10,8.3z M10,7.6c0.1,0,0.2,0,0.2-0.1s0.1-0.1,0.1-0.2c0-0.1,0.1-0.2,0.1-0.4c0-0.1,0-0.3-0.1-0.4c0-0.1-0.1-0.2-0.1-0.2
			c-0.1-0.1-0.1-0.1-0.2-0.1c-0.1,0-0.2,0-0.2,0.1C9.7,6.3,9.7,6.4,9.7,6.5c0,0.1-0.1,0.2-0.1,0.4c0,0.1,0,0.3,0.1,0.4
			c0,0.1,0.1,0.2,0.1,0.2C9.9,7.6,9.9,7.6,10,7.6z"/>
		<path d="M8.4,13.2v-1.6h1v2.8H8.5v-0.5h0c-0.1,0.2-0.2,0.3-0.3,0.4s-0.3,0.1-0.5,0.1c-0.2,0-0.4,0-0.5-0.1
			c-0.1-0.1-0.3-0.2-0.3-0.4c-0.1-0.2-0.1-0.3-0.1-0.5v-1.8h1v1.6c0,0.1,0,0.2,0.1,0.3c0.1,0.1,0.2,0.1,0.3,0.1c0.1,0,0.2,0,0.2-0.1
			c0.1,0,0.1-0.1,0.1-0.2C8.4,13.4,8.4,13.3,8.4,13.2z M8.4,11.3L8,10.9l-0.4,0.4H6.8v0l0.8-0.8h0.7l0.8,0.8v0H8.4z"/>
	</g>
</g>
</svg>
